<svg width="48" height="48" viewBox="0 0 48 48" fill="none" xmlns="http://www.w3.org/2000/svg">
<path d="M25.8398 18.12C25.5746 18.12 25.3203 18.0147 25.1327 17.8271C24.9452 17.6396 24.8398 17.3852 24.8398 17.12V12.26C24.8398 11.9948 24.9452 11.7404 25.1327 11.5529C25.3203 11.3654 25.5746 11.26 25.8398 11.26C26.1051 11.26 26.3594 11.3654 26.547 11.5529C26.7345 11.7404 26.8398 11.9948 26.8398 12.26V17.12C26.8347 17.3836 26.7277 17.635 26.5413 17.8215C26.3548 18.0079 26.1035 18.1149 25.8398 18.12Z" fill="url(#paint0_linear_4630_4910)"/>
<path d="M25.8398 22.16C25.5746 22.16 25.3203 22.0547 25.1327 21.8671C24.9452 21.6796 24.8398 21.4253 24.8398 21.16V19.54C24.8398 19.2748 24.9452 19.0205 25.1327 18.8329C25.3203 18.6454 25.5746 18.54 25.8398 18.54C26.1035 18.5452 26.3548 18.6522 26.5413 18.8386C26.7277 19.025 26.8347 19.2764 26.8398 19.54V21.16C26.8398 21.4253 26.7345 21.6796 26.547 21.8671C26.3594 22.0547 26.1051 22.16 25.8398 22.16Z" fill="url(#paint1_linear_4630_4910)"/>
<path d="M22.5799 4.95996H9.61988C7.83048 4.95996 6.37988 6.41056 6.37988 8.19996V39.8C6.37988 41.5894 7.83048 43.04 9.61988 43.04H22.5799C24.3693 43.04 25.8199 41.5894 25.8199 39.8V8.19996C25.8199 6.41056 24.3693 4.95996 22.5799 4.95996Z" fill="url(#paint2_linear_4630_4910)"/>
<path d="M22.58 6.58008H9.62C8.7253 6.58008 8 7.30538 8 8.20008V39.8001C8 40.6948 8.7253 41.4201 9.62 41.4201H22.58C23.4747 41.4201 24.2 40.6948 24.2 39.8001V8.20008C24.2 7.30538 23.4747 6.58008 22.58 6.58008Z" fill="url(#paint3_linear_4630_4910)"/>
<path d="M12.8203 6.40008V6.78008C12.8203 7.22191 13.1785 7.58008 13.6203 7.58008H18.5803C19.0221 7.58008 19.3803 7.22191 19.3803 6.78008V6.40008C19.3803 5.95825 19.0221 5.60008 18.5803 5.60008H13.6203C13.1785 5.60008 12.8203 5.95825 12.8203 6.40008Z" fill="url(#paint4_linear_4630_4910)"/>
<path d="M11.28 39.56C11.7108 39.56 12.06 39.2108 12.06 38.78C12.06 38.3492 11.7108 38 11.28 38C10.8492 38 10.5 38.3492 10.5 38.78C10.5 39.2108 10.8492 39.56 11.28 39.56Z" fill="#F7CCFF"/>
<path d="M15.9402 39.56C16.3709 39.56 16.7202 39.2108 16.7202 38.78C16.7202 38.3492 16.3709 38 15.9402 38C15.5094 38 15.1602 38.3492 15.1602 38.78C15.1602 39.2108 15.5094 39.56 15.9402 39.56Z" fill="#F7CCFF"/>
<path d="M20.6198 39.56C21.0506 39.56 21.3998 39.2108 21.3998 38.78C21.3998 38.3492 21.0506 38 20.6198 38C20.1891 38 19.8398 38.3492 19.8398 38.78C19.8398 39.2108 20.1891 39.56 20.6198 39.56Z" fill="#F7CCFF"/>
<path d="M38.4797 11.5601H19.8397C18.1166 11.5601 16.7197 12.9569 16.7197 14.6801V33.3201C16.7197 35.0432 18.1166 36.4401 19.8397 36.4401H38.4797C40.2029 36.4401 41.5997 35.0432 41.5997 33.3201V14.6801C41.5997 12.9569 40.2029 11.5601 38.4797 11.5601Z" fill="url(#paint5_linear_4630_4910)"/>
<path d="M12.4397 17.78C13.1611 17.78 13.853 18.0666 14.3631 18.5767C14.8732 19.0868 15.1597 19.7786 15.1597 20.5C15.1597 21.2214 14.8732 21.9133 14.3631 22.4234C13.853 22.9335 13.1611 23.22 12.4397 23.22C11.7183 23.22 11.0265 22.9335 10.5164 22.4234C10.0063 21.9133 9.71973 21.2214 9.71973 20.5C9.71973 19.7786 10.0063 19.0868 10.5164 18.5767C11.0265 18.0666 11.7183 17.78 12.4397 17.78Z" fill="#F7CCFF"/>
<path d="M14.3797 24.78H10.4997C10.0689 24.78 9.71973 25.1292 9.71973 25.56V29.44C9.71973 29.8708 10.0689 30.22 10.4997 30.22H14.3797C14.8105 30.22 15.1597 29.8708 15.1597 29.44V25.56C15.1597 25.1292 14.8105 24.78 14.3797 24.78Z" fill="#F7CCFF"/>
<path d="M27.1598 36.8799H19.8398C18.9009 36.8799 18.0005 36.507 17.3366 35.8431C16.6728 35.1792 16.2998 34.2788 16.2998 33.3399V14.6599H17.1598V33.3399C17.1651 34.0472 17.4498 34.7238 17.9518 35.222C18.4538 35.7203 19.1325 35.9999 19.8398 35.9999H27.1598V36.8799Z" fill="#D981EF"/>
<path d="M24.5004 15.7C24.9774 15.6999 25.4498 15.7942 25.8903 15.9774C26.3308 16.1606 26.7308 16.429 27.0672 16.7673C27.4036 17.1056 27.6698 17.507 27.8506 17.9485C28.0313 18.39 28.123 18.8629 28.1204 19.34C28.1204 20.3 27.739 21.2208 27.0601 21.8997C26.3812 22.5786 25.4604 22.96 24.5004 22.96C23.5384 22.96 22.6156 22.5792 21.9335 21.9009C21.2515 21.2226 20.8656 20.3019 20.8604 19.34C20.8604 18.8619 20.9545 18.3886 21.1374 17.947C21.3204 17.5054 21.5885 17.1041 21.9265 16.7661C22.2645 16.4281 22.6658 16.16 23.1074 15.977C23.549 15.7941 24.0223 15.7 24.5004 15.7Z" fill="white"/>
<path d="M27.3404 25.04H21.6404C21.2096 25.04 20.8604 25.3893 20.8604 25.82V31.52C20.8604 31.9508 21.2096 32.3 21.6404 32.3H27.3404C27.7711 32.3 28.1204 31.9508 28.1204 31.52V25.82C28.1204 25.3893 27.7711 25.04 27.3404 25.04Z" fill="white"/>
<path d="M36.6802 15.7H30.9802C30.5494 15.7 30.2002 16.0492 30.2002 16.48V22.18C30.2002 22.6107 30.5494 22.96 30.9802 22.96H36.6802C37.111 22.96 37.4602 22.6107 37.4602 22.18V16.48C37.4602 16.0492 37.111 15.7 36.6802 15.7Z" fill="white"/>
<path d="M37.16 31.52H30.5L33.84 25.52L37.16 31.52Z" fill="white"/>
<defs>
<linearGradient id="paint0_linear_4630_4910" x1="25.8398" y1="18.12" x2="25.8398" y2="11.26" gradientUnits="userSpaceOnUse">
<stop stop-color="#EF99FF"/>
<stop offset="1" stop-color="#F8D1FF"/>
</linearGradient>
<linearGradient id="paint1_linear_4630_4910" x1="50.6798" y1="58.6496" x2="50.6798" y2="52.0974" gradientUnits="userSpaceOnUse">
<stop stop-color="#EF99FF"/>
<stop offset="1" stop-color="#F8D1FF"/>
</linearGradient>
<linearGradient id="paint2_linear_4630_4910" x1="16.1199" y1="5.17996" x2="16.1199" y2="43.14" gradientUnits="userSpaceOnUse">
<stop stop-color="#EF99FF"/>
<stop offset="1" stop-color="#D981EF"/>
</linearGradient>
<linearGradient id="paint3_linear_4630_4910" x1="138.572" y1="726.026" x2="138.572" y2="123.642" gradientUnits="userSpaceOnUse">
<stop stop-color="#EF99FF"/>
<stop offset="1" stop-color="#F8D1FF"/>
</linearGradient>
<linearGradient id="paint4_linear_4630_4910" x1="31.0791" y1="18.9785" x2="31.0791" y2="144.537" gradientUnits="userSpaceOnUse">
<stop stop-color="#EF99FF"/>
<stop offset="1" stop-color="#F8D1FF"/>
</linearGradient>
<linearGradient id="paint5_linear_4630_4910" x1="29.1597" y1="12.4601" x2="29.1597" y2="36.1401" gradientUnits="userSpaceOnUse">
<stop stop-color="#F8D1FF"/>
<stop offset="1" stop-color="#EF99FF"/>
</linearGradient>
</defs>
</svg>
