<svg width="48" height="48" viewBox="0 0 48 48" fill="none" xmlns="http://www.w3.org/2000/svg">
<path d="M43.7798 27.26C43.5492 24.4186 43.1484 21.5935 42.5798 18.8C41.9543 16.4373 40.8441 14.2305 39.3198 12.32C37.6467 11.7951 35.9118 11.4925 34.1598 11.42C30.871 11.0733 27.5668 10.8931 24.2598 10.88C20.9194 10.8898 17.5817 11.0701 14.2598 11.42C12.5078 11.4925 10.7729 11.7951 9.09977 12.32C7.63243 14.2442 6.57717 16.4501 5.99977 18.8C5.43109 21.5935 5.03038 24.4186 4.79977 27.26C4.34279 29.9635 4.43119 32.7312 5.05977 35.4C5.52508 36.1323 6.16558 36.737 6.92334 37.1595C7.6811 37.5821 8.53223 37.8091 9.39977 37.82C9.99977 37.82 10.4398 37.68 10.5198 37.46V37.28C10.7798 36.52 11.5198 34.16 12.5198 32C13.7198 29.16 14.6998 27.78 15.4998 27.76C15.8753 27.7922 16.2415 27.8939 16.5798 28.06C17.1554 28.3139 17.7717 28.4629 18.3998 28.5H18.4998C19.0175 28.4884 19.5276 28.3728 19.9998 28.16C20.6912 27.8472 21.4409 27.6836 22.1998 27.68H26.3398C27.0987 27.6836 27.8483 27.8472 28.5398 28.16C29.0119 28.3728 29.522 28.4884 30.0398 28.5H30.1398C30.7852 28.4488 31.4157 28.2793 31.9998 28C32.3381 27.8339 32.7043 27.7322 33.0798 27.7C33.8998 27.7 34.8598 29.1 36.0598 31.94C36.9798 34.1 37.7198 36.46 38.0598 37.22V37.4C38.0598 37.62 38.5598 37.76 39.1598 37.76C40.0409 37.7624 40.9083 37.5418 41.6811 37.1187C42.454 36.6955 43.1071 36.0836 43.5798 35.34C44.1804 32.6864 44.2484 29.94 43.7798 27.26Z" fill="url(#paint0_linear_4630_4912)"/>
<path d="M4.83983 35.46C3.55983 32.92 5.05983 21.66 5.77983 18.78C6.39972 16.3771 7.52472 14.1339 9.07983 12.2C12.1906 11.3944 15.3867 10.9647 18.5998 10.92C18.619 10.9164 18.6387 10.9176 18.6574 10.9233C18.676 10.9291 18.6929 10.9393 18.7067 10.9531C18.7205 10.9669 18.7307 10.9838 18.7365 11.0025C18.7423 11.0211 18.7434 11.0408 18.7398 11.06C18.3798 12.66 17.7798 15.26 17.2998 17.06C16.824 18.3197 16.1487 19.4947 15.2998 20.54C14.0976 22.1113 13.1587 23.8675 12.5198 25.74C10.8198 30.66 11.0398 36.12 10.5198 37.54C10.3398 38.48 6.09983 38 4.83983 35.46ZM43.6598 35.46C44.9398 32.92 43.4398 21.66 42.7198 18.78C42.0999 16.3771 40.9749 14.1339 39.4198 12.2C36.3415 11.4023 33.1794 10.9726 29.9998 10.92C29.9807 10.9164 29.9609 10.9176 29.9423 10.9233C29.9237 10.9291 29.9067 10.9393 29.8929 10.9531C29.8791 10.9669 29.8689 10.9838 29.8632 11.0025C29.8574 11.0211 29.8562 11.0408 29.8598 11.06C30.2198 12.66 30.8198 15.26 31.2998 17.06C31.7756 18.3197 32.4509 19.4947 33.2998 20.54C34.4773 22.0999 35.3895 23.8433 35.9998 25.7C37.6998 30.62 37.4798 36.08 37.9998 37.5C38.1598 38.48 42.3998 38 43.6598 35.46Z" fill="url(#paint1_linear_4630_4912)"/>
<path d="M29.9202 27.26C31.6875 27.26 33.1202 25.8273 33.1202 24.06C33.1202 22.2927 31.6875 20.86 29.9202 20.86C28.1529 20.86 26.7202 22.2927 26.7202 24.06C26.7202 25.8273 28.1529 27.26 29.9202 27.26Z" fill="white"/>
<path d="M29.9332 26.2964C31.1703 26.2929 32.1704 25.2872 32.1669 24.0501C32.1634 22.813 31.1578 21.8129 29.9207 21.8164C28.6835 21.8198 27.6835 22.8255 27.6869 24.0626C27.6904 25.2997 28.6961 26.2998 29.9332 26.2964Z" fill="url(#paint2_linear_4630_4912)"/>
<path d="M18.5799 27.26C20.3472 27.26 21.7799 25.8273 21.7799 24.06C21.7799 22.2927 20.3472 20.86 18.5799 20.86C16.8126 20.86 15.3799 22.2927 15.3799 24.06C15.3799 25.8273 16.8126 27.26 18.5799 27.26Z" fill="white"/>
<path d="M18.5933 26.308C19.8304 26.3046 20.8305 25.2989 20.8271 24.0618C20.8236 22.8247 19.8179 21.8246 18.5808 21.828C17.3437 21.8315 16.3436 22.8372 16.3471 24.0743C16.3505 25.3114 17.3562 26.3115 18.5933 26.308Z" fill="url(#paint3_linear_4630_4912)"/>
<path d="M38.28 15.22C38.28 15.5701 38.1409 15.9059 37.8934 16.1534C37.6458 16.401 37.3101 16.54 36.96 16.54C36.6099 16.54 36.2742 16.401 36.0266 16.1534C35.7791 15.9059 35.64 15.5701 35.64 15.22C35.64 14.8699 35.7791 14.5342 36.0266 14.2866C36.2742 14.0391 36.6099 13.9 36.96 13.9C37.3101 13.9 37.6458 14.0391 37.8934 14.2866C38.1409 14.5342 38.28 14.8699 38.28 15.22ZM36.96 19.22C36.6942 19.2161 36.4331 19.2913 36.2102 19.4361C35.9872 19.5809 35.8123 19.7887 35.7078 20.0332C35.6033 20.2777 35.5739 20.5477 35.6234 20.809C35.6728 21.0702 35.7988 21.3108 35.9854 21.5002C36.172 21.6897 36.4107 21.8193 36.6711 21.8726C36.9316 21.926 37.2021 21.9006 37.4481 21.7998C37.6941 21.699 37.9046 21.5273 38.0527 21.3065C38.2008 21.0858 38.28 20.8259 38.28 20.56C38.2909 20.3801 38.2649 20.1998 38.2034 20.0303C38.142 19.8608 38.0465 19.7057 37.9228 19.5745C37.7992 19.4433 37.6499 19.3389 37.4843 19.2676C37.3187 19.1963 37.1403 19.1597 36.96 19.16V19.22ZM39.6 16.52C39.2499 16.52 38.9142 16.6591 38.6666 16.9066C38.4191 17.1542 38.28 17.4899 38.28 17.84C38.28 18.1901 38.4191 18.5259 38.6666 18.7734C38.9142 19.021 39.2499 19.16 39.6 19.16C39.9501 19.16 40.2858 19.021 40.5334 18.7734C40.7809 18.5259 40.92 18.1901 40.92 17.84C40.92 17.4899 40.7809 17.1542 40.5334 16.9066C40.2858 16.6591 39.9501 16.52 39.6 16.52ZM34.32 16.52C34.0589 16.52 33.8037 16.5974 33.5866 16.7425C33.3696 16.8875 33.2004 17.0937 33.1005 17.3349C33.0006 17.5761 32.9744 17.8415 33.0254 18.0975C33.0763 18.3536 33.202 18.5888 33.3866 18.7734C33.5712 18.958 33.8064 19.0837 34.0625 19.1347C34.3185 19.1856 34.5839 19.1595 34.8251 19.0595C35.0663 18.9596 35.2725 18.7905 35.4175 18.5734C35.5626 18.3563 35.64 18.1011 35.64 17.84C35.64 17.4899 35.5009 17.1542 35.2534 16.9066C35.0058 16.6591 34.6701 16.52 34.32 16.52Z" fill="url(#paint4_linear_4630_4912)"/>
<path d="M8.24019 19.16C8.17779 19.1477 8.12092 19.1159 8.07778 19.0692C8.03464 19.0224 8.00747 18.9632 8.00019 18.9C7.92767 18.2353 7.92767 17.5647 8.00019 16.9C8.00937 16.8309 8.04235 16.7671 8.09344 16.7197C8.14454 16.6722 8.21058 16.6441 8.28019 16.64L9.30019 16.74H9.44019L10.7402 17.64C10.7764 17.6689 10.8058 17.7054 10.8266 17.7468C10.8473 17.7883 10.8588 17.8337 10.8602 17.88C10.8347 17.9323 10.7925 17.9746 10.7402 18L9.44019 18.92H9.30019L8.28019 19.02L8.24019 19.16ZM14.8402 19.16C14.9098 19.156 14.9758 19.1278 15.0269 19.0804C15.078 19.0329 15.111 18.9691 15.1202 18.9C15.1407 18.547 15.1407 18.193 15.1202 17.84C15.1401 17.4936 15.1401 17.1464 15.1202 16.8C15.111 16.7309 15.078 16.6671 15.0269 16.6197C14.9758 16.5722 14.9098 16.5441 14.8402 16.54L13.8402 16.64C13.818 16.6307 13.7942 16.6258 13.7702 16.6258C13.7461 16.6258 13.7223 16.6307 13.7002 16.64L12.3802 17.54C12.344 17.5689 12.3145 17.6054 12.2938 17.6468C12.2731 17.6883 12.2616 17.7337 12.2602 17.78C12.2554 17.8204 12.2601 17.8613 12.274 17.8995C12.2879 17.9377 12.3106 17.9721 12.3402 18L13.6602 18.92C13.6602 18.92 13.6602 18.92 13.8002 18.92L14.8002 19.02L14.8402 19.16ZM11.7802 17.06L12.7002 15.74C12.7089 15.6937 12.7089 15.6463 12.7002 15.6V14.58C12.706 14.5035 12.6822 14.4278 12.6339 14.3683C12.5855 14.3088 12.5162 14.27 12.4402 14.26C11.7756 14.186 11.1048 14.186 10.4402 14.26C10.3642 14.27 10.2949 14.3088 10.2465 14.3683C10.1982 14.4278 10.1744 14.5035 10.1802 14.58V15.6C10.1715 15.6463 10.1715 15.6937 10.1802 15.74L11.1002 17.06C11.1281 17.0973 11.1644 17.1275 11.206 17.1483C11.2477 17.1692 11.2936 17.18 11.3402 17.18C11.3868 17.18 11.4327 17.1692 11.4744 17.1483C11.516 17.1275 11.5522 17.0973 11.5802 17.06H11.7802ZM12.5802 21.42C12.6189 21.4177 12.6567 21.4073 12.6911 21.3896C12.7256 21.3719 12.756 21.3472 12.7805 21.3171C12.8049 21.287 12.8228 21.2522 12.8331 21.2148C12.8434 21.1775 12.8458 21.1384 12.8402 21.1V20.1C12.852 20.0541 12.852 20.0059 12.8402 19.96L11.9202 18.64C11.8922 18.6028 11.856 18.5725 11.8144 18.5517C11.7727 18.5309 11.7268 18.52 11.6802 18.52C11.6336 18.52 11.5877 18.5309 11.546 18.5517C11.5044 18.5725 11.4681 18.6028 11.4402 18.64L10.3802 20C10.3683 20.0459 10.3683 20.0941 10.3802 20.14V21.14C10.3746 21.1784 10.377 21.2175 10.3873 21.2548C10.3976 21.2922 10.4155 21.327 10.4399 21.3571C10.4644 21.3872 10.4948 21.4119 10.5293 21.4296C10.5637 21.4473 10.6015 21.4576 10.6402 21.46C11.3048 21.534 11.9756 21.534 12.6402 21.46L12.5802 21.42Z" fill="url(#paint5_linear_4630_4912)"/>
<path d="M24.2798 10.52C24.2798 10.52 18.8998 10.52 15.7598 11.06L17.0198 16.7C17.1414 17.3885 17.5127 18.0078 18.0625 18.4396C18.6123 18.8714 19.3021 19.0851 19.9998 19.04C22.7198 19.04 24.2598 19.04 24.2598 19.04C24.2598 19.04 25.7998 19.04 28.5198 19.04C29.2184 19.0897 29.9105 18.8776 30.4613 18.445C31.0121 18.0125 31.3823 17.3905 31.4998 16.7L32.7798 11.06C29.6598 10.6 24.2798 10.52 24.2798 10.52Z" fill="url(#paint6_linear_4630_4912)"/>
<path d="M4.37993 35.7C2.99993 32.9 4.61993 21.36 5.27993 18.66C5.92878 16.158 7.10887 13.8251 8.73993 11.82L9.39993 12.58C7.92768 14.4395 6.85836 16.585 6.25993 18.88C5.55993 21.78 4.11993 32.88 5.27993 35.24L4.37993 35.7Z" fill="#C4C4C4"/>
<path d="M32.7202 11.56C29.9112 11.2361 27.0875 11.0559 24.2602 11.02C21.4395 11.0571 18.6226 11.2374 15.8202 11.56L15.6802 10.56C18.5287 10.2262 21.3925 10.0393 24.2602 10C27.1342 10.0314 30.0048 10.2116 32.8602 10.54L32.7202 11.56Z" fill="#C4C4C4"/>
<path d="M26.22 19.56H24.22C24.22 19.56 22.66 19.56 19.96 19.56C19.1444 19.5908 18.3454 19.3236 17.7124 18.8083C17.0793 18.293 16.6555 17.5649 16.52 16.76L17.52 16.64H17.02H17.52C17.6182 17.2108 17.9282 17.7235 18.3879 18.0757C18.8477 18.4279 19.4234 18.5937 20 18.54C22.68 18.54 24.22 18.54 24.24 18.54C24.26 18.54 25.84 18.54 28.5 18.54C29.0805 18.5903 29.6591 18.424 30.1243 18.0732C30.5896 17.7224 30.9086 17.2119 31.02 16.64L32 16.76C31.8635 17.5703 31.4331 18.3019 30.7911 18.8148C30.149 19.3277 29.3405 19.5859 28.52 19.54L26.22 19.56Z" fill="#307FE2"/>
<defs>
<linearGradient id="paint0_linear_4630_4912" x1="24.2598" y1="10.46" x2="24.2598" y2="37.98" gradientUnits="userSpaceOnUse">
<stop stop-color="#3FC6FF"/>
<stop offset="1" stop-color="#307FE2"/>
</linearGradient>
<linearGradient id="paint1_linear_4630_4912" x1="24.2598" y1="38.32" x2="24.2598" y2="10.8" gradientUnits="userSpaceOnUse">
<stop stop-color="#D1D3D4"/>
<stop offset="1" stop-color="white"/>
</linearGradient>
<linearGradient id="paint2_linear_4630_4912" x1="94.7004" y1="70.5174" x2="94.7004" y2="80.7766" gradientUnits="userSpaceOnUse">
<stop stop-color="#3FC6FF"/>
<stop offset="1" stop-color="#307FE2"/>
</linearGradient>
<linearGradient id="paint3_linear_4630_4912" x1="57.959" y1="70.5174" x2="57.959" y2="80.7766" gradientUnits="userSpaceOnUse">
<stop stop-color="#3FC6FF"/>
<stop offset="1" stop-color="#307FE2"/>
</linearGradient>
<linearGradient id="paint4_linear_4630_4912" x1="179.362" y1="71.259" x2="179.362" y2="100.618" gradientUnits="userSpaceOnUse">
<stop stop-color="#3FC6FF"/>
<stop offset="1" stop-color="#307FE2"/>
</linearGradient>
<linearGradient id="paint5_linear_4630_4912" x1="49.4306" y1="67.0628" x2="49.4306" y2="93.4553" gradientUnits="userSpaceOnUse">
<stop stop-color="#3FC6FF"/>
<stop offset="1" stop-color="#307FE2"/>
</linearGradient>
<linearGradient id="paint6_linear_4630_4912" x1="222.383" y1="93.3182" x2="222.383" y2="55.9695" gradientUnits="userSpaceOnUse">
<stop stop-color="#D1D3D4"/>
<stop offset="1" stop-color="white"/>
</linearGradient>
</defs>
</svg>
