<svg width="48" height="48" viewBox="0 0 48 48" fill="none" xmlns="http://www.w3.org/2000/svg">
<path d="M36.1596 34.84H31.0796C30.8144 34.84 30.56 34.7346 30.3725 34.5471C30.1849 34.3595 30.0796 34.1052 30.0796 33.84C30.0847 33.5764 30.1917 33.325 30.3781 33.1385C30.5646 32.9521 30.816 32.8451 31.0796 32.84H36.1596C36.4248 32.84 36.6792 32.9453 36.8667 33.1329C37.0542 33.3204 37.1596 33.5747 37.1596 33.84C37.1596 34.1052 37.0542 34.3595 36.8667 34.5471C36.6792 34.7346 36.4248 34.84 36.1596 34.84Z" fill="url(#paint0_linear_4630_4907)"/>
<path d="M28.5594 34.8401H26.8594C26.5942 34.8401 26.3398 34.7347 26.1523 34.5472C25.9647 34.3597 25.8594 34.1053 25.8594 33.8401C25.8594 33.5749 25.9647 33.3205 26.1523 33.133C26.3398 32.9454 26.5942 32.8401 26.8594 32.8401H28.5594C28.823 32.8452 29.0744 32.9522 29.2608 33.1386C29.4473 33.3251 29.5543 33.5765 29.5594 33.8401C29.5594 34.1053 29.454 34.3597 29.2665 34.5472C29.0789 34.7347 28.8246 34.8401 28.5594 34.8401Z" fill="url(#paint1_linear_4630_4907)"/>
<path d="M40.3995 13.54H7.39953C5.53281 13.54 4.01953 15.0533 4.01953 16.92V30.46C4.01953 32.3268 5.53281 33.84 7.39953 33.84H40.3995C42.2663 33.84 43.7795 32.3268 43.7795 30.46V16.92C43.7795 15.0533 42.2663 13.54 40.3995 13.54Z" fill="url(#paint2_linear_4630_4907)"/>
<path d="M40.3997 15.24H7.41973C6.48084 15.24 5.71973 16.0011 5.71973 16.94V30.46C5.71973 31.3989 6.48084 32.16 7.41973 32.16H40.3997C41.3386 32.16 42.0997 31.3989 42.0997 30.46V16.94C42.0997 16.0011 41.3386 15.24 40.3997 15.24Z" fill="#FFC242"/>
<path d="M13.2796 27.9999C13.2796 28.3599 13.1729 28.7118 12.9729 29.0111C12.7729 29.3104 12.4887 29.5436 12.1561 29.6814C11.8236 29.8191 11.4576 29.8552 11.1046 29.785C10.7515 29.7147 10.4272 29.5414 10.1727 29.2869C9.91818 29.0323 9.74484 28.708 9.67462 28.355C9.60439 28.002 9.64044 27.636 9.77819 27.3034C9.91594 26.9709 10.1492 26.6866 10.4485 26.4867C10.7478 26.2867 11.0997 26.1799 11.4596 26.1799C11.9423 26.1799 12.4053 26.3717 12.7466 26.713C13.0879 27.0543 13.2796 27.5172 13.2796 27.9999Z" fill="white"/>
<path d="M37.1396 24.1401C37.9901 24.1401 38.6796 23.4506 38.6796 22.6001C38.6796 21.7496 37.9901 21.0601 37.1396 21.0601C36.2891 21.0601 35.5996 21.7496 35.5996 22.6001C35.5996 23.4506 36.2891 24.1401 37.1396 24.1401Z" fill="white"/>
<path d="M37.1406 26.3199C36.6682 26.316 36.2054 26.4527 35.8109 26.7127C35.4165 26.9727 35.1083 27.3442 34.9257 27.7798C34.7431 28.2155 34.6943 28.6957 34.7855 29.1593C34.8767 29.6228 35.1038 30.0487 35.4378 30.3827C35.7719 30.7168 36.1978 30.9439 36.6613 31.0351C37.1248 31.1263 37.605 31.0774 38.0407 30.8948C38.4764 30.7122 38.8479 30.4041 39.1079 30.0096C39.3679 29.6152 39.5046 29.1523 39.5006 28.6799C39.5006 28.054 39.252 27.4537 38.8094 27.0111C38.3668 26.5686 37.7666 26.3199 37.1406 26.3199Z" fill="white"/>
<path d="M33.2402 26.2599C34.0907 26.2599 34.7802 25.5705 34.7802 24.7199C34.7802 23.8694 34.0907 23.1799 33.2402 23.1799C32.3897 23.1799 31.7002 23.8694 31.7002 24.7199C31.7002 25.5705 32.3897 26.2599 33.2402 26.2599Z" fill="white"/>
<path d="M31.1601 30.2199C32.0106 30.2199 32.7001 29.5304 32.7001 28.6799C32.7001 27.8294 32.0106 27.1399 31.1601 27.1399C30.3096 27.1399 29.6201 27.8294 29.6201 28.6799C29.6201 29.5304 30.3096 30.2199 31.1601 30.2199Z" fill="white"/>
<path d="M27.0604 17.3601H20.7404C20.5283 17.3601 20.3248 17.2758 20.1747 17.1257C20.0247 16.9757 19.9404 16.7722 19.9404 16.5601C19.9404 16.4559 19.9612 16.3528 20.0017 16.2569C20.0421 16.1609 20.1013 16.074 20.1759 16.0013C20.2505 15.9286 20.3388 15.8716 20.4358 15.8336C20.5327 15.7956 20.6363 15.7774 20.7404 15.7801H27.0604C27.1636 15.7773 27.2663 15.7956 27.3622 15.8338C27.458 15.872 27.5451 15.9294 27.6181 16.0024C27.6911 16.0754 27.7484 16.1625 27.7867 16.2583C27.8249 16.3542 27.8432 16.4569 27.8404 16.5601C27.8431 16.6642 27.8249 16.7677 27.7869 16.8647C27.7489 16.9617 27.6919 17.05 27.6192 17.1246C27.5465 17.1991 27.4596 17.2584 27.3636 17.2988C27.2677 17.3393 27.1646 17.3601 27.0604 17.3601Z" fill="white"/>
<path d="M25.4795 22.9001H24.6795V22.1201C24.6822 22.016 24.664 21.9124 24.626 21.8155C24.588 21.7185 24.531 21.6302 24.4583 21.5556C24.3856 21.481 24.2987 21.4218 24.2027 21.3814C24.1068 21.3409 24.0037 21.3201 23.8995 21.3201C23.6874 21.3201 23.4839 21.4044 23.3338 21.5544C23.1838 21.7045 23.0995 21.908 23.0995 22.1201V22.9001H22.3195C22.1074 22.9001 21.9039 22.9844 21.7538 23.1344C21.6038 23.2845 21.5195 23.488 21.5195 23.7001C21.5195 23.8043 21.5403 23.9074 21.5808 24.0033C21.6212 24.0993 21.6805 24.1862 21.755 24.2589C21.8296 24.3316 21.9179 24.3886 22.0149 24.4266C22.1118 24.4646 22.2154 24.4828 22.3195 24.4801H23.0995V25.2801C23.1065 25.3884 23.1361 25.4939 23.1862 25.5901C23.2363 25.6863 23.3059 25.771 23.3906 25.8387C23.4753 25.9065 23.5732 25.9559 23.6781 25.9836C23.7829 26.0114 23.8924 26.017 23.9995 26.0001C24.1027 26.0029 24.2054 25.9846 24.3013 25.9464C24.3971 25.9081 24.4842 25.8508 24.5572 25.7778C24.6302 25.7048 24.6875 25.6177 24.7258 25.5218C24.764 25.426 24.7823 25.3233 24.7795 25.2201V24.4201H25.5795C25.6827 24.4229 25.7854 24.4046 25.8813 24.3664C25.9771 24.3281 26.0642 24.2708 26.1372 24.1978C26.2102 24.1248 26.2675 24.0377 26.3058 23.9418C26.344 23.846 26.3623 23.7433 26.3595 23.6401C26.3549 23.5321 26.3278 23.4262 26.2801 23.3292C26.2324 23.2322 26.165 23.1462 26.0823 23.0766C25.9995 23.007 25.9032 22.9554 25.7994 22.925C25.6957 22.8946 25.5867 22.8862 25.4795 22.9001Z" fill="#FFD67E"/>
<path d="M12.4797 15.22H7.27973C6.41816 15.22 5.71973 15.9185 5.71973 16.78V21.98C5.71973 22.8416 6.41816 23.54 7.27973 23.54H12.4797C13.3413 23.54 14.0397 22.8416 14.0397 21.98V16.78C14.0397 15.9185 13.3413 15.22 12.4797 15.22Z" fill="white"/>
<path d="M11.4604 24.1199C10.7018 24.116 9.959 24.3368 9.3258 24.7546C8.69259 25.1724 8.19732 25.7684 7.90248 26.4674C7.60764 27.1664 7.52644 27.937 7.66912 28.6821C7.81181 29.4272 8.172 30.1133 8.70422 30.6539C9.23645 31.1944 9.91687 31.5653 10.6596 31.7196C11.4024 31.8738 12.1742 31.8047 12.8777 31.5207C13.5812 31.2368 14.1848 30.7509 14.6124 30.1243C15.04 29.4977 15.2725 28.7584 15.2804 27.9999C15.2857 27.4939 15.1909 26.9919 15.0015 26.5227C14.8122 26.0535 14.5319 25.6263 14.177 25.2658C13.822 24.9052 13.3992 24.6184 12.933 24.4217C12.4668 24.225 11.9664 24.1225 11.4604 24.1199ZM11.4604 30.6399C10.923 30.6437 10.3967 30.4871 9.94885 30.1901C9.50099 29.8931 9.15194 29.4692 8.94638 28.9727C8.74082 28.4762 8.6881 27.9297 8.79497 27.403C8.90184 26.8763 9.16343 26.3936 9.54626 26.0164C9.9291 25.6393 10.4158 25.385 10.944 25.2861C11.4722 25.1871 12.0179 25.2481 12.5112 25.4611C13.0046 25.6741 13.4232 26.0295 13.7134 26.4817C14.0036 26.934 14.1523 27.4626 14.1404 27.9999C14.1299 28.7037 13.8429 29.3751 13.3414 29.8691C12.84 30.3631 12.1643 30.6399 11.4604 30.6399Z" fill="#FFD67E"/>
<path d="M23.8991 18.1602C24.3409 18.1602 24.6991 17.8021 24.6991 17.3602C24.6991 16.9184 24.3409 16.5602 23.8991 16.5602C23.4573 16.5602 23.0991 16.9184 23.0991 17.3602C23.0991 17.8021 23.4573 18.1602 23.8991 18.1602Z" fill="#FFC242"/>
<path d="M42.2604 19.9399H41.8004C41.3033 19.9399 40.9004 20.3429 40.9004 20.8399V26.5599C40.9004 27.057 41.3033 27.4599 41.8004 27.4599H42.2604C42.7574 27.4599 43.1604 27.057 43.1604 26.5599V20.8399C43.1604 20.3429 42.7574 19.9399 42.2604 19.9399Z" fill="url(#paint3_linear_4630_4907)"/>
<path d="M44 30.58H43V17.04C43 16.2761 42.6966 15.5436 42.1565 15.0035C41.6164 14.4634 40.8838 14.16 40.12 14.16H20V13.16H40.1C40.6112 13.1573 41.1179 13.2557 41.591 13.4496C42.064 13.6434 42.4941 13.9287 42.8565 14.2893C43.2189 14.6498 43.5065 15.0785 43.7028 15.5505C43.899 16.0226 44 16.5287 44 17.04V30.58Z" fill="#EA7600"/>
<defs>
<linearGradient id="paint0_linear_4630_4907" x1="33.6196" y1="32.84" x2="33.6196" y2="34.84" gradientUnits="userSpaceOnUse">
<stop stop-color="#FFAD00"/>
<stop offset="1" stop-color="#EA7600"/>
</linearGradient>
<linearGradient id="paint1_linear_4630_4907" x1="77.1044" y1="65.6802" x2="77.1044" y2="67.6802" gradientUnits="userSpaceOnUse">
<stop stop-color="#FFAD00"/>
<stop offset="1" stop-color="#EA7600"/>
</linearGradient>
<linearGradient id="paint2_linear_4630_4907" x1="781.231" y1="4.97704" x2="781.231" y2="210.616" gradientUnits="userSpaceOnUse">
<stop stop-color="#FFAD00"/>
<stop offset="1" stop-color="#EA7600"/>
</linearGradient>
<linearGradient id="paint3_linear_4630_4907" x1="88.4056" y1="68.0679" x2="88.4056" y2="148.983" gradientUnits="userSpaceOnUse">
<stop stop-color="#FFAD00"/>
<stop offset="1" stop-color="#EA7600"/>
</linearGradient>
</defs>
</svg>
