<svg width="48" height="48" viewBox="0 0 48 48" fill="none" xmlns="http://www.w3.org/2000/svg">
<path d="M27.7796 31.8201H21.5596V36.4801H27.7796V31.8201Z" fill="#808285"/>
<path d="M15.3602 34.9202H34.0002C34.819 34.9201 35.6044 35.244 36.1852 35.8211C36.766 36.3981 37.095 37.1815 37.1002 38.0002V39.5602H12.2402V38.0002C12.2508 37.1796 12.5841 36.3963 13.1681 35.8198C13.7521 35.2433 14.5396 34.9201 15.3602 34.9202Z" fill="url(#paint0_linear_4630_4909)"/>
<path d="M38.6595 8.5H9.11953C7.40745 8.5 6.01953 9.88792 6.01953 11.6V30.26C6.01953 31.9721 7.40745 33.36 9.11953 33.36H38.6595C40.3716 33.36 41.7595 31.9721 41.7595 30.26V11.6C41.7595 9.88792 40.3716 8.5 38.6595 8.5Z" fill="#FFB0D0"/>
<path d="M38.66 33.3601H9.14C8.72955 33.3654 8.32213 33.2891 7.94139 33.1357C7.56066 32.9823 7.21418 32.7548 6.92207 32.4664C6.62995 32.178 6.39803 31.8344 6.23974 31.4557C6.08146 31.077 5.99997 30.6706 6 30.2601V11.6201C5.99999 11.2087 6.08135 10.8013 6.23939 10.4215C6.39744 10.0416 6.62905 9.69677 6.92089 9.40679C7.21273 9.11681 7.55904 8.88741 7.93988 8.73179C8.32073 8.57618 8.7286 8.49743 9.14 8.50006H38.66C39.4875 8.50006 40.2811 8.82878 40.8662 9.41389C41.4513 9.999 41.78 10.7926 41.78 11.6201V30.2601C41.78 30.6689 41.6992 31.0736 41.5421 31.451C41.3851 31.8284 41.155 32.1711 40.865 32.4592C40.575 32.7473 40.2309 32.9752 39.8525 33.1299C39.474 33.2845 39.0688 33.3627 38.66 33.3601ZM9.14 10.0001C8.72626 10.0001 8.32947 10.1644 8.03691 10.457C7.74436 10.7495 7.58 11.1463 7.58 11.5601V30.2001C7.58 30.6138 7.74436 31.0106 8.03691 31.3032C8.32947 31.5957 8.72626 31.7601 9.14 31.7601H38.66C39.0737 31.7601 39.4705 31.5957 39.7631 31.3032C40.0556 31.0106 40.22 30.6138 40.22 30.2001V11.6201C40.2281 11.4102 40.1937 11.2009 40.1189 11.0046C40.0442 10.8084 39.9305 10.6293 39.7849 10.478C39.6392 10.3267 39.4645 10.2064 39.2712 10.1243C39.0779 10.0422 38.87 9.99991 38.66 10.0001H9.14Z" fill="url(#paint1_linear_4630_4909)"/>
<path d="M13.8001 10.0601H9.14008C8.27851 10.0601 7.58008 10.7585 7.58008 11.6201V16.2801C7.58008 17.1416 8.27851 17.8401 9.14008 17.8401H13.8001C14.6616 17.8401 15.3601 17.1416 15.3601 16.2801V11.6201C15.3601 10.7585 14.6616 10.0601 13.8001 10.0601Z" fill="white"/>
<path d="M37.8803 26.3801H36.3403C35.4787 26.3801 34.7803 27.0786 34.7803 27.9401V29.4801C34.7803 30.3417 35.4787 31.0401 36.3403 31.0401H37.8803C38.7418 31.0401 39.4403 30.3417 39.4403 29.4801V27.9401C39.4403 27.0786 38.7418 26.3801 37.8803 26.3801Z" fill="white"/>
<path d="M37.8803 20.9402H36.3403C35.4787 20.9402 34.7803 21.6386 34.7803 22.5002V24.0402C34.7803 24.9018 35.4787 25.6002 36.3403 25.6002H37.8803C38.7418 25.6002 39.4403 24.9018 39.4403 24.0402V22.5002C39.4403 21.6386 38.7418 20.9402 37.8803 20.9402Z" fill="white"/>
<path d="M32.4398 26.3801H30.8998C30.0383 26.3801 29.3398 27.0786 29.3398 27.9401V29.4801C29.3398 30.3417 30.0383 31.0401 30.8998 31.0401H32.4398C33.3014 31.0401 33.9998 30.3417 33.9998 29.4801V27.9401C33.9998 27.0786 33.3014 26.3801 32.4398 26.3801Z" fill="white"/>
<path d="M33.2204 12.4001C33.6512 12.4001 34.0004 12.0509 34.0004 11.6201C34.0004 11.1893 33.6512 10.8401 33.2204 10.8401C32.7897 10.8401 32.4404 11.1893 32.4404 11.6201C32.4404 12.0509 32.7897 12.4001 33.2204 12.4001Z" fill="#FFC5DF"/>
<path d="M9.14035 30.26C9.57113 30.26 9.92035 29.9107 9.92035 29.4799C9.92035 29.0492 9.57113 28.7 9.14035 28.7C8.70957 28.7 8.36035 29.0492 8.36035 29.4799C8.36035 29.9107 8.70957 30.26 9.14035 30.26Z" fill="#FFC5DF"/>
<path d="M9.14035 27.9401C9.57113 27.9401 9.92035 27.5909 9.92035 27.1601C9.92035 26.7293 9.57113 26.3801 9.14035 26.3801C8.70957 26.3801 8.36035 26.7293 8.36035 27.1601C8.36035 27.5909 8.70957 27.9401 9.14035 27.9401Z" fill="#FFC5DF"/>
<path d="M9.14035 25.6C9.57113 25.6 9.92035 25.2508 9.92035 24.82C9.92035 24.3893 9.57113 24.04 9.14035 24.04C8.70957 24.04 8.36035 24.3893 8.36035 24.82C8.36035 25.2508 8.70957 25.6 9.14035 25.6Z" fill="#FFC5DF"/>
<path d="M26.2396 20.9399C26.2345 21.1452 26.1507 21.3407 26.0055 21.4859C25.8603 21.6311 25.6648 21.7149 25.4596 21.7199H24.6796V22.4799C24.6796 22.6868 24.5974 22.8852 24.4511 23.0315C24.3048 23.1778 24.1064 23.2599 23.8996 23.2599C23.7964 23.2627 23.6937 23.2444 23.5979 23.2062C23.502 23.168 23.4149 23.1106 23.3419 23.0376C23.2689 22.9646 23.2116 22.8775 23.1733 22.7817C23.1351 22.6858 23.1168 22.5831 23.1196 22.4799V21.7199H22.3396C22.1343 21.7149 21.9388 21.6311 21.7936 21.4859C21.6484 21.3407 21.5646 21.1452 21.5596 20.9399C21.5596 20.7331 21.6417 20.5347 21.788 20.3884C21.9343 20.2421 22.1327 20.1599 22.3396 20.1599H23.1196V19.3799C23.1187 19.2685 23.1416 19.1582 23.1869 19.0564C23.2322 18.9546 23.2988 18.8637 23.3822 18.7898C23.4655 18.7159 23.5638 18.6607 23.6703 18.628C23.7768 18.5952 23.8891 18.5857 23.9996 18.5999C24.2048 18.605 24.4003 18.6888 24.5455 18.834C24.6907 18.9792 24.7745 19.1747 24.7796 19.3799V20.1599H25.5596C25.7487 20.1844 25.9223 20.2772 26.0475 20.4209C26.1728 20.5647 26.2411 20.7493 26.2396 20.9399Z" fill="#FFC5DF"/>
<path d="M38.6598 10.8401H35.5598C35.4483 10.822 35.3342 10.8285 35.2254 10.8589C35.1166 10.8893 35.0157 10.9429 34.9297 11.0161C34.8436 11.0894 34.7746 11.1804 34.7272 11.283C34.6798 11.3855 34.6553 11.4971 34.6553 11.6101C34.6553 11.723 34.6798 11.8347 34.7272 11.9372C34.7746 12.0398 34.8436 12.1308 34.9297 12.204C35.0157 12.2772 35.1166 12.3309 35.2254 12.3613C35.3342 12.3917 35.4483 12.3981 35.5598 12.3801H38.6598C38.7713 12.3981 38.8854 12.3917 38.9942 12.3613C39.103 12.3309 39.2039 12.2772 39.2899 12.204C39.3759 12.1308 39.445 12.0398 39.4924 11.9372C39.5397 11.8347 39.5643 11.723 39.5643 11.6101C39.5643 11.4971 39.5397 11.3855 39.4924 11.283C39.445 11.1804 39.3759 11.0894 39.2899 11.0161C39.2039 10.9429 39.103 10.8893 38.9942 10.8589C38.8854 10.8285 38.7713 10.822 38.6598 10.8401Z" fill="#FFC5DF"/>
<path d="M27 10.8401H20.8C20.6885 10.822 20.5744 10.8285 20.4656 10.8589C20.3568 10.8893 20.2559 10.9429 20.1699 11.0161C20.0839 11.0894 20.0148 11.1804 19.9674 11.283C19.92 11.3855 19.8955 11.4971 19.8955 11.6101C19.8955 11.723 19.92 11.8347 19.9674 11.9372C20.0148 12.0398 20.0839 12.1308 20.1699 12.204C20.2559 12.2772 20.3568 12.3309 20.4656 12.3613C20.5744 12.3917 20.6885 12.3981 20.8 12.3801H27C27.1115 12.3981 27.2256 12.3917 27.3344 12.3613C27.4432 12.3309 27.5441 12.2772 27.6301 12.204C27.7161 12.1308 27.7852 12.0398 27.8326 11.9372C27.88 11.8347 27.9045 11.723 27.9045 11.6101C27.9045 11.4971 27.88 11.3855 27.8326 11.283C27.7852 11.1804 27.7161 11.0894 27.6301 11.0161C27.5441 10.9429 27.4432 10.8893 27.3344 10.8589C27.2256 10.8285 27.1115 10.822 27 10.8401Z" fill="white"/>
<path d="M17.6797 28.7H11.4597C11.2544 28.705 11.059 28.7888 10.9138 28.934C10.7686 29.0792 10.6848 29.2747 10.6797 29.4799C10.6797 29.6868 10.7619 29.8852 10.9081 30.0315C11.0544 30.1778 11.2528 30.26 11.4597 30.26H17.6797C17.7829 30.2627 17.8855 30.2444 17.9814 30.2062C18.0773 30.168 18.1644 30.1106 18.2374 30.0376C18.3103 29.9646 18.3677 29.8775 18.4059 29.7817C18.4441 29.6858 18.4624 29.5831 18.4597 29.4799C18.4597 29.2731 18.3775 29.0747 18.2312 28.9284C18.085 28.7821 17.8866 28.7 17.6797 28.7Z" fill="#FFC5DF"/>
<path d="M11.4602 28H14.5802C14.6917 28.018 14.8058 28.0116 14.9146 27.9812C15.0234 27.9508 15.1243 27.8971 15.2103 27.8239C15.2963 27.7507 15.3654 27.6596 15.4128 27.5571C15.4601 27.4545 15.4847 27.3429 15.4847 27.23C15.4847 27.117 15.4601 27.0054 15.4128 26.9028C15.3654 26.8003 15.2963 26.7092 15.2103 26.636C15.1243 26.5628 15.0234 26.5091 14.9146 26.4787C14.8058 26.4483 14.6917 26.4419 14.5802 26.46H11.4602C11.3486 26.4419 11.2345 26.4483 11.1258 26.4787C11.017 26.5091 10.9161 26.5628 10.8301 26.636C10.744 26.7092 10.675 26.8003 10.6276 26.9028C10.5802 27.0054 10.5557 27.117 10.5557 27.23C10.5557 27.3429 10.5802 27.4545 10.6276 27.5571C10.675 27.6596 10.744 27.7507 10.8301 27.8239C10.9161 27.8971 11.017 27.9508 11.1258 27.9812C11.2345 28.0116 11.3486 28.018 11.4602 28Z" fill="#FFC5DF"/>
<path d="M11.4597 25.6H14.5797C14.6821 25.6 14.7835 25.5799 14.8782 25.5407C14.9728 25.5015 15.0588 25.444 15.1312 25.3716C15.2037 25.2992 15.2611 25.2132 15.3003 25.1185C15.3395 25.0239 15.3597 24.9225 15.3597 24.82C15.3597 24.7176 15.3395 24.6162 15.3003 24.5215C15.2611 24.4269 15.2037 24.3409 15.1312 24.2685C15.0588 24.1961 14.9728 24.1386 14.8782 24.0994C14.7835 24.0602 14.6821 24.04 14.5797 24.04H11.4597C11.2528 24.04 11.0544 24.1222 10.9081 24.2685C10.7619 24.4148 10.6797 24.6132 10.6797 24.82C10.6797 25.0269 10.7619 25.2253 10.9081 25.3716C11.0544 25.5179 11.2528 25.6 11.4597 25.6Z" fill="#FFC5DF"/>
<path d="M39.3801 24.88C40.1695 25.0912 40.9095 25.4558 41.5579 25.9532C42.2063 26.4505 42.7504 27.0707 43.159 27.7783C43.5676 28.4859 43.8328 29.2672 43.9393 30.0773C44.0459 30.8875 43.9918 31.7107 43.7801 32.5L41.7801 40C41.6204 40.598 41.3436 41.1585 40.9658 41.6488C40.588 42.1392 40.1166 42.5497 39.579 42.8566C39.0415 43.1635 38.4483 43.3607 37.834 43.4368C37.2197 43.513 36.5964 43.4664 36.0001 43.3L33.0001 42.5C31.8055 42.1766 30.7877 41.3932 30.1692 40.3213C29.5508 39.2493 29.3821 37.976 29.7001 36.78L31.7001 29.28C31.9109 28.4841 32.2776 27.7379 32.779 27.0848C33.2804 26.4317 33.9064 25.8846 34.6208 25.4753C35.3352 25.066 36.1238 24.8026 36.9408 24.7004C37.7578 24.5982 38.5869 24.6593 39.3801 24.88Z" fill="url(#paint2_linear_4630_4909)"/>
<path d="M32.2512 30.4894L31.9922 31.4553L42.501 34.2731L42.76 33.3072L32.2512 30.4894Z" fill="#FF5A96"/>
<path d="M38.7247 25.512L36.9082 32.2722L37.8739 32.5317L39.6904 25.7715L38.7247 25.512Z" fill="#FF5A96"/>
<path d="M35.4603 40.9C35.3143 40.9208 35.1662 40.9208 35.0203 40.9C34.7985 40.8262 34.5939 40.7084 34.4187 40.5538C34.2434 40.3992 34.1011 40.2108 34.0003 40C33.8912 39.8112 33.8208 39.6025 33.7933 39.3861C33.7659 39.1698 33.7818 38.9501 33.8403 38.74C33.955 38.3101 34.2355 37.9433 34.6203 37.72C34.8091 37.6109 35.0178 37.5405 35.2341 37.5131C35.4505 37.4856 35.6702 37.5015 35.8803 37.56C36.3101 37.6747 36.677 37.9552 36.9003 38.34C37.0094 38.5288 37.0797 38.7375 37.1072 38.9539C37.1347 39.1702 37.1187 39.3899 37.0603 39.6C36.9345 40.0243 36.6568 40.3874 36.2803 40.62C36.0349 40.781 35.7528 40.8773 35.4603 40.9ZM35.4603 38.56C35.3552 38.5337 35.2453 38.5337 35.1403 38.56C35.0485 38.6161 34.9718 38.6938 34.9169 38.7863C34.8619 38.8788 34.8305 38.9833 34.8252 39.0908C34.8199 39.1982 34.841 39.3053 34.8865 39.4028C34.9321 39.5002 35.0008 39.5851 35.0867 39.6499C35.1725 39.7147 35.2729 39.7576 35.3791 39.7747C35.4853 39.7919 35.5941 39.7828 35.696 39.7483C35.7979 39.7138 35.8898 39.655 35.9638 39.5768C36.0377 39.4987 36.0914 39.4036 36.1203 39.3C36.155 39.2212 36.1729 39.1361 36.1729 39.05C36.1729 38.9639 36.155 38.8788 36.1203 38.8C36.0792 38.722 36.0225 38.6533 35.9537 38.5982C35.8848 38.5432 35.8054 38.5029 35.7203 38.48L35.4603 38.56Z" fill="#FF5A96"/>
<path d="M26.2395 33.86H9.13953C8.1829 33.86 7.26516 33.4814 6.58685 32.8068C5.90854 32.1323 5.52482 31.2166 5.51953 30.26V22.26H6.51953V30.26C6.52481 30.9514 6.80317 31.6127 7.29395 32.0997C7.78472 32.5867 8.44812 32.86 9.13953 32.86H26.2395V33.86Z" fill="#FF5A96"/>
<path d="M23.9001 13.1601C24.3309 13.1601 24.6801 12.8109 24.6801 12.3801C24.6801 11.9493 24.3309 11.6001 23.9001 11.6001C23.4693 11.6001 23.1201 11.9493 23.1201 12.3801C23.1201 12.8109 23.4693 13.1601 23.9001 13.1601Z" fill="#FFB0D0"/>
<defs>
<linearGradient id="paint0_linear_4630_4909" x1="24.6802" y1="34.5002" x2="24.6802" y2="43.7402" gradientUnits="userSpaceOnUse">
<stop stop-color="#FFA8C8"/>
<stop offset="1" stop-color="#FF5A96"/>
</linearGradient>
<linearGradient id="paint1_linear_4630_4909" x1="433.571" y1="115.399" x2="433.571" y2="559.405" gradientUnits="userSpaceOnUse">
<stop stop-color="#FFA8C8"/>
<stop offset="1" stop-color="#FF5A96"/>
</linearGradient>
<linearGradient id="paint2_linear_4630_4909" x1="295.414" y1="255.762" x2="295.414" y2="602.05" gradientUnits="userSpaceOnUse">
<stop stop-color="#FFA8C8"/>
<stop offset="1" stop-color="#FF5A96"/>
</linearGradient>
</defs>
</svg>
