<svg width="48" height="48" viewBox="0 0 48 48" fill="none" xmlns="http://www.w3.org/2000/svg">
<path d="M39.1604 11.5H20.0404C18.2841 11.5 16.8604 12.9237 16.8604 14.68V33.8C16.8604 35.5563 18.2841 36.98 20.0404 36.98H39.1604C40.9166 36.98 42.3404 35.5563 42.3404 33.8V14.68C42.3404 12.9237 40.9166 11.5 39.1604 11.5Z" fill="url(#paint0_linear_4630_4911)"/>
<path d="M34 17.0801L28 24.8401H32.18L30.98 31.4201L37.56 22.4601H33.38L34 17.0801Z" fill="white"/>
<path d="M30.9805 31.42L37.5605 22.46L30.9805 31.42Z" fill="#FF6A4D"/>
<path d="M25.7207 18.2999C25.4555 18.2999 25.2011 18.1946 25.0136 18.007C24.8261 17.8195 24.7207 17.5652 24.7207 17.2999V12.4399C24.7207 12.1747 24.8261 11.9204 25.0136 11.7328C25.2011 11.5453 25.4555 11.4399 25.7207 11.4399C25.9859 11.4399 26.2403 11.5453 26.4278 11.7328C26.6153 11.9204 26.7207 12.1747 26.7207 12.4399V17.2999C26.7207 17.5652 26.6153 17.8195 26.4278 18.007C26.2403 18.1946 25.9859 18.2999 25.7207 18.2999Z" fill="url(#paint1_linear_4630_4911)"/>
<path d="M25.7207 22.36C25.4555 22.36 25.2011 22.2546 25.0136 22.0671C24.8261 21.8796 24.7207 21.6252 24.7207 21.36V19.74C24.7207 19.4748 24.8261 19.2204 25.0136 19.0329C25.2011 18.8453 25.4555 18.74 25.7207 18.74C25.9859 18.74 26.2403 18.8453 26.4278 19.0329C26.6153 19.2204 26.7207 19.4748 26.7207 19.74V21.36C26.7207 21.6252 26.6153 21.8796 26.4278 22.0671C26.2403 22.2546 25.9859 22.36 25.7207 22.36Z" fill="url(#paint2_linear_4630_4911)"/>
<path d="M22.4803 5.15991H9.52027C7.73087 5.15991 6.28027 6.61051 6.28027 8.39991V39.9999C6.28027 41.7893 7.73087 43.2399 9.52027 43.2399H22.4803C24.2697 43.2399 25.7203 41.7893 25.7203 39.9999V8.39991C25.7203 6.61051 24.2697 5.15991 22.4803 5.15991Z" fill="url(#paint3_linear_4630_4911)"/>
<path d="M22.4804 6.78003H9.52039C8.62569 6.78003 7.90039 7.50533 7.90039 8.40003V40C7.90039 40.8947 8.62569 41.62 9.52039 41.62H22.4804C23.3751 41.62 24.1004 40.8947 24.1004 40V8.40003C24.1004 7.50533 23.3751 6.78003 22.4804 6.78003Z" fill="url(#paint4_linear_4630_4911)"/>
<path d="M12.7207 6.58001V6.96001C12.7207 7.40184 13.0789 7.76001 13.5207 7.76001H18.4807C18.9225 7.76001 19.2807 7.40184 19.2807 6.96001V6.58001C19.2807 6.13818 18.9225 5.78001 18.4807 5.78001H13.5207C13.0789 5.78001 12.7207 6.13818 12.7207 6.58001Z" fill="url(#paint5_linear_4630_4911)"/>
<path d="M16.06 33.82C21.3398 33.82 25.62 29.5398 25.62 24.26C25.62 18.9801 21.3398 14.7 16.06 14.7C10.7802 14.7 6.5 18.9801 6.5 24.26C6.5 29.5398 10.7802 33.82 16.06 33.82Z" fill="white"/>
<path d="M11.2805 40.1798C11.7223 40.1798 12.0805 39.8217 12.0805 39.3798C12.0805 38.938 11.7223 38.5798 11.2805 38.5798C10.8386 38.5798 10.4805 38.938 10.4805 39.3798C10.4805 39.8217 10.8386 40.1798 11.2805 40.1798Z" fill="#45E595"/>
<path d="M16.0607 40.1798C16.5026 40.1798 16.8607 39.8217 16.8607 39.3798C16.8607 38.938 16.5026 38.5798 16.0607 38.5798C15.6189 38.5798 15.2607 38.938 15.2607 39.3798C15.2607 39.8217 15.6189 40.1798 16.0607 40.1798Z" fill="#45E595"/>
<path d="M20.84 40.1798C21.2819 40.1798 21.64 39.8217 21.64 39.3798C21.64 38.938 21.2819 38.5798 20.84 38.5798C20.3982 38.5798 20.04 38.938 20.04 39.3798C20.04 39.8217 20.3982 40.1798 20.84 40.1798Z" fill="#45E595"/>
<path d="M13.6603 24.6399H12.6003C12.2502 24.6399 11.9144 24.5008 11.6669 24.2533C11.4193 24.0057 11.2803 23.67 11.2803 23.3199V21.1999C11.2803 20.8498 11.4193 20.5141 11.6669 20.2665C11.9144 20.019 12.2502 19.8799 12.6003 19.8799H13.6603C14.2915 19.8799 14.8969 20.1306 15.3432 20.577C15.7895 21.0233 16.0403 21.6287 16.0403 22.2599C16.0403 22.8911 15.7895 23.4965 15.3432 23.9428C14.8969 24.3891 14.2915 24.6399 13.6603 24.6399ZM12.8803 23.0599H13.6603C13.8724 23.0599 14.0759 22.9756 14.226 22.8256C14.376 22.6755 14.4603 22.4721 14.4603 22.2599C14.4603 22.0477 14.376 21.8442 14.226 21.6942C14.0759 21.5442 13.8724 21.4599 13.6603 21.4599H12.8803V23.0599Z" fill="#21A56F"/>
<path d="M18.44 27.0398H17.38C17.2024 27.0451 17.0254 27.015 16.8595 26.9513C16.6936 26.8876 16.542 26.7915 16.4136 26.6687C16.2852 26.5459 16.1825 26.3987 16.1115 26.2358C16.0405 26.0729 16.0026 25.8975 16 25.7198V23.5798C16.0052 23.2313 16.1459 22.8985 16.3923 22.6521C16.6388 22.4056 16.9715 22.2649 17.32 22.2598H18.38C18.7122 22.2293 19.0472 22.2685 19.3634 22.3748C19.6796 22.4811 19.9703 22.6521 20.2167 22.877C20.4631 23.1019 20.66 23.3757 20.7946 23.6809C20.9293 23.9862 20.9989 24.3161 20.9989 24.6498C20.9989 24.9834 20.9293 25.3133 20.7946 25.6186C20.66 25.9238 20.4631 26.1976 20.2167 26.4225C19.9703 26.6474 19.6796 26.8184 19.3634 26.9247C19.0472 27.031 18.7122 27.0702 18.38 27.0398H18.44ZM17.64 25.4398H18.44C18.5543 25.458 18.6711 25.4512 18.7826 25.4199C18.894 25.3886 18.9972 25.3335 19.0853 25.2584C19.1733 25.1833 19.244 25.09 19.2925 24.9849C19.341 24.8798 19.3661 24.7655 19.3661 24.6498C19.3661 24.534 19.341 24.4197 19.2925 24.3146C19.244 24.2095 19.1733 24.1162 19.0853 24.0411C18.9972 23.966 18.894 23.9109 18.7826 23.8796C18.6711 23.8483 18.5543 23.8415 18.44 23.8598H17.64V25.4398Z" fill="#21A56F"/>
<path d="M12.0002 27.0399C11.788 27.0399 11.5845 26.9556 11.4345 26.8055C11.2845 26.6555 11.2002 26.452 11.2002 26.2399V20.6599C11.2002 20.4477 11.2845 20.2442 11.4345 20.0942C11.5845 19.9441 11.788 19.8599 12.0002 19.8599C12.2124 19.8599 12.4159 19.9441 12.5659 20.0942C12.7159 20.2442 12.8002 20.4477 12.8002 20.6599V26.2399C12.8002 26.452 12.7159 26.6555 12.5659 26.8055C12.4159 26.9556 12.2124 27.0399 12.0002 27.0399Z" fill="#21A56F"/>
<path d="M16.8605 29.4198C16.7564 29.4224 16.6529 29.4042 16.5559 29.3662C16.459 29.3282 16.3706 29.2712 16.296 29.1985C16.2215 29.1258 16.1622 29.0389 16.1218 28.943C16.0813 28.847 16.0605 28.7439 16.0605 28.6398V23.0598C16.0605 22.9547 16.0812 22.8507 16.1214 22.7536C16.1616 22.6566 16.2206 22.5684 16.2949 22.4941C16.3691 22.4198 16.4573 22.3609 16.5544 22.3207C16.6515 22.2805 16.7555 22.2598 16.8605 22.2598C16.9647 22.2597 17.0678 22.2806 17.1637 22.321C17.2597 22.3614 17.3466 22.4207 17.4193 22.4952C17.492 22.5698 17.549 22.6582 17.587 22.7551C17.625 22.8521 17.6432 22.9557 17.6405 23.0598V28.6398C17.6433 28.7429 17.625 28.8456 17.5868 28.9415C17.5486 29.0374 17.4912 29.1245 17.4182 29.1974C17.3452 29.2704 17.2581 29.3278 17.1623 29.366C17.0664 29.4042 16.9637 29.4225 16.8605 29.4198Z" fill="#21A56F"/>
<path d="M15.2601 27.0399C15.0958 27.0428 14.9349 26.9938 14.8001 26.8999L12.0001 24.8999C11.8277 24.7752 11.7119 24.5872 11.6781 24.3772C11.6444 24.1671 11.6954 23.9523 11.8201 23.7799C11.9447 23.6075 12.1328 23.4917 12.3428 23.4579C12.5529 23.4242 12.7677 23.4752 12.9401 23.5999L15.7201 25.5999C15.8532 25.6996 15.9518 25.8382 16.0025 25.9966C16.0531 26.155 16.0531 26.3252 16.0025 26.4836C15.9519 26.6419 15.8532 26.7806 15.7202 26.8803C15.5871 26.98 15.4263 27.0358 15.2601 27.0399Z" fill="#21A56F"/>
<path d="M39.1602 37.4998H32.1602V36.4998H39.1602C39.8728 36.4945 40.5544 36.2078 41.0564 35.702C41.5585 35.1962 41.8402 34.5125 41.8402 33.7998V18.8198H42.8402V33.7998C42.8402 34.7777 42.4531 35.7158 41.7635 36.4091C41.074 37.1024 40.138 37.4945 39.1602 37.4998Z" fill="#00A063"/>
<defs>
<linearGradient id="paint0_linear_4630_4911" x1="29.6004" y1="12.84" x2="29.6004" y2="37.38" gradientUnits="userSpaceOnUse">
<stop stop-color="#45E595"/>
<stop offset="1" stop-color="#31C07D"/>
</linearGradient>
<linearGradient id="paint1_linear_4630_4911" x1="24.7207" y1="14.8799" x2="26.7207" y2="14.8799" gradientUnits="userSpaceOnUse">
<stop stop-color="#2BB673"/>
<stop offset="1" stop-color="#189260"/>
</linearGradient>
<linearGradient id="paint2_linear_4630_4911" x1="49.4407" y1="55.9174" x2="51.4407" y2="55.9174" gradientUnits="userSpaceOnUse">
<stop stop-color="#2BB673"/>
<stop offset="1" stop-color="#189260"/>
</linearGradient>
<linearGradient id="paint3_linear_4630_4911" x1="161.8" y1="101.883" x2="161.8" y2="807.886" gradientUnits="userSpaceOnUse">
<stop stop-color="#2BB673"/>
<stop offset="1" stop-color="#189260"/>
</linearGradient>
<linearGradient id="paint4_linear_4630_4911" x1="137.5" y1="124.191" x2="137.5" y2="741.556" gradientUnits="userSpaceOnUse">
<stop stop-color="#45E595"/>
<stop offset="1" stop-color="#31C07D"/>
</linearGradient>
<linearGradient id="paint5_linear_4630_4911" x1="30.8607" y1="19.8344" x2="30.8607" y2="145.655" gradientUnits="userSpaceOnUse">
<stop stop-color="#2BB673"/>
<stop offset="1" stop-color="#189260"/>
</linearGradient>
</defs>
</svg>
