<svg width="48" height="48" viewBox="0 0 48 48" fill="none" xmlns="http://www.w3.org/2000/svg">
<path d="M29.6 27.0199V6.8999L12 10.6599V26.6599C11.8471 26.9426 11.618 27.1767 11.3387 27.3358C11.0594 27.4948 10.7412 27.5725 10.42 27.5599C8.04005 27.7799 5.20005 28.8399 4.42005 30.5799C4.04374 31.205 3.88663 31.9378 3.97356 32.6623C4.0605 33.3867 4.38652 34.0615 4.90005 34.5799C5.78539 35.3901 6.917 35.8797 8.11365 35.9703C9.3103 36.061 10.5028 35.7474 11.5 35.0799C12.2647 34.5798 12.897 33.902 13.3428 33.1045C13.7886 32.3069 14.0347 31.4133 14.06 30.4999V24.8399V17.4999L27.4 14.6799V23.3799C27.2263 23.613 26.9997 23.8016 26.739 23.9302C26.4783 24.0588 26.1908 24.1238 25.9 24.1199C23.5201 24.3399 20.68 25.3999 19.9 27.1399C19.5237 27.765 19.3666 28.4978 19.4536 29.2223C19.5405 29.9467 19.8665 30.6215 20.38 31.1399C21.2654 31.9501 22.397 32.4397 23.5937 32.5303C24.7903 32.621 25.9828 32.3074 26.98 31.6399C27.7614 31.1429 28.4088 30.4618 28.8656 29.6563C29.3224 28.8508 29.5746 27.9455 29.6 27.0199Z" fill="url(#paint0_linear_4630_4908)"/>
<path d="M41.5202 26.7H25.0202C23.7168 26.7 22.6602 27.7566 22.6602 29.0599V38.4799C22.6602 39.7833 23.7168 40.84 25.0202 40.84H41.5202C42.8235 40.84 43.8802 39.7833 43.8802 38.4799V29.0599C43.8802 27.7566 42.8235 26.7 41.5202 26.7Z" fill="url(#paint1_linear_4630_4908)"/>
<path d="M30.3398 30.8799V36.6799C30.3422 36.7284 30.3564 36.7756 30.3811 36.8175C30.4058 36.8594 30.4403 36.8946 30.4816 36.9202C30.5229 36.9457 30.5698 36.9609 30.6183 36.9643C30.6667 36.9678 30.7153 36.9594 30.7598 36.9399L35.9998 33.9999C36.0472 33.9801 36.0877 33.9468 36.1162 33.9041C36.1446 33.8614 36.1598 33.8112 36.1598 33.7599C36.1598 33.7085 36.1446 33.6584 36.1162 33.6157C36.0877 33.5729 36.0472 33.5396 35.9998 33.5199L30.6998 30.5999C30.6574 30.5912 30.6135 30.5918 30.5713 30.6016C30.5291 30.6115 30.4896 30.6303 30.4553 30.6569C30.4211 30.6836 30.3931 30.7173 30.3731 30.7557C30.3532 30.7942 30.3418 30.8366 30.3398 30.8799Z" fill="white"/>
<path d="M36.7399 24.4798C36.5943 24.4815 36.4527 24.432 36.3399 24.3398C36.256 24.287 36.1835 24.2179 36.1267 24.1366C36.07 24.0553 36.0302 23.9634 36.0097 23.8664C35.9892 23.7694 35.9883 23.6692 36.0073 23.5719C36.0262 23.4745 36.0645 23.382 36.1199 23.2998C36.4391 22.669 36.5798 21.963 36.5269 21.258C36.4741 20.553 36.2296 19.8759 35.8199 19.2998C35.5176 18.6601 35.0511 18.112 34.4678 17.7114C33.8846 17.3109 33.2055 17.0722 32.4999 17.0198C32.3049 17.0255 32.1152 16.956 31.97 16.8257C31.8248 16.6954 31.7352 16.5143 31.7199 16.3198C31.7089 16.1214 31.776 15.9266 31.9068 15.777C32.0376 15.6275 32.2218 15.5352 32.4199 15.5198C33.4032 15.5511 34.3596 15.8486 35.1872 16.3804C36.0149 16.9122 36.6828 17.6585 37.1199 18.5398C37.6637 19.3595 37.9751 20.3113 38.0208 21.2939C38.0666 22.2764 37.8451 23.2531 37.3799 24.1198C37.311 24.2277 37.2166 24.317 37.1049 24.3798C36.9933 24.4426 36.868 24.4769 36.7399 24.4798Z" fill="#FFA89C"/>
<path d="M34.1204 23.4998C34.0088 23.5277 33.892 23.5277 33.7804 23.4998C33.6087 23.4063 33.4796 23.2502 33.42 23.0639C33.3604 22.8777 33.3748 22.6756 33.4604 22.4998C33.5985 22.2479 33.6624 21.9621 33.6447 21.6753C33.627 21.3886 33.5284 21.1128 33.3604 20.8798V20.7598C33.2495 20.4863 33.0624 20.2504 32.8213 20.0802C32.5802 19.91 32.2952 19.8127 32.0004 19.7998C31.8225 19.7707 31.6608 19.6792 31.5441 19.5418C31.4274 19.4045 31.3633 19.2301 31.3633 19.0498C31.3633 18.8695 31.4274 18.6951 31.5441 18.5578C31.6608 18.4204 31.8225 18.329 32.0004 18.2998C32.5506 18.3175 33.0855 18.4852 33.5472 18.7848C34.009 19.0844 34.3801 19.5046 34.6204 19.9998C34.9251 20.4537 35.101 20.9817 35.1292 21.5277C35.1573 22.0736 35.0368 22.617 34.7804 23.0998C34.7161 23.2193 34.621 23.3195 34.5049 23.3898C34.3889 23.4602 34.2561 23.4981 34.1204 23.4998Z" fill="#FFA89C"/>
<path d="M39.36 25.4398C39.2178 25.4402 39.0786 25.3984 38.96 25.3198C38.7947 25.2096 38.6791 25.0391 38.6379 24.8447C38.5968 24.6503 38.6335 24.4475 38.74 24.2798C39.2479 23.2708 39.4733 22.1431 39.3924 21.0164C39.3114 19.8896 38.927 18.8058 38.28 17.8798C37.8108 16.8537 37.0679 15.9768 36.133 15.3452C35.198 14.7137 34.1071 14.352 32.98 14.2998C32.781 14.3008 32.5888 14.2276 32.4408 14.0944C32.2929 13.9613 32.1999 13.7778 32.18 13.5798C32.1743 13.3848 32.2438 13.195 32.3741 13.0498C32.5044 12.9046 32.6855 12.8151 32.88 12.7998C34.2894 12.8306 35.6625 13.2529 36.8457 14.0193C38.0289 14.7857 38.9756 15.8662 39.58 17.1398C40.3773 18.3064 40.8382 19.6698 40.9123 21.0809C40.9864 22.4919 40.6708 23.8962 40 25.1398C39.9245 25.2367 39.8272 25.3143 39.7159 25.3665C39.6047 25.4186 39.4828 25.4437 39.36 25.4398Z" fill="#FFA89C"/>
<path d="M12.6797 19.4598H11.6797V10.2598L20.8397 8.27979L21.0597 9.25979L12.6797 11.0598V19.4598Z" fill="#EF4136"/>
<path d="M23.2803 33.7799H22.2803V29.0599C22.2855 28.303 22.5885 27.5786 23.1237 27.0434C23.659 26.5082 24.3834 26.2052 25.1403 26.2H31.6803V27.2H25.1403C24.647 27.2 24.1739 27.3959 23.8251 27.7447C23.4762 28.0935 23.2803 28.5666 23.2803 29.0599V33.7799Z" fill="#EF4136"/>
<defs>
<linearGradient id="paint0_linear_4630_4908" x1="16.86" y1="6.8999" x2="16.86" y2="35.9599" gradientUnits="userSpaceOnUse">
<stop stop-color="#FFB4A6"/>
<stop offset="1" stop-color="#FF6A4D"/>
</linearGradient>
<linearGradient id="paint1_linear_4630_4908" x1="33.2802" y1="26.7" x2="33.2802" y2="40.86" gradientUnits="userSpaceOnUse">
<stop stop-color="#FF6A4D"/>
<stop offset="1" stop-color="#EF4136"/>
</linearGradient>
</defs>
</svg>
