<svg width="48" height="48" viewBox="0 0 48 48" fill="none" xmlns="http://www.w3.org/2000/svg">
<path d="M24.7798 6.13989H8.49977C7.77307 6.13989 7.07614 6.42857 6.56229 6.94242C6.04844 7.45627 5.75977 8.1532 5.75977 8.87989V34.5999C5.765 35.325 6.05536 36.0189 6.56808 36.5316C7.0808 37.0443 7.77469 37.3347 8.49977 37.3399H24.7798C25.1396 37.3399 25.4959 37.269 25.8283 37.1313C26.1607 36.9936 26.4628 36.7918 26.7172 36.5374C26.9717 36.2829 27.1735 35.9809 27.3112 35.6484C27.4489 35.316 27.5198 34.9597 27.5198 34.5999V8.87989C27.5198 8.52007 27.4489 8.16377 27.3112 7.83134C27.1735 7.49891 26.9717 7.19685 26.7172 6.94242C26.4628 6.68799 26.1607 6.48616 25.8283 6.34846C25.4959 6.21076 25.1396 6.13989 24.7798 6.13989ZM18.5998 10.4799H14.5998C14.4194 10.4799 14.2465 10.4082 14.1189 10.2807C13.9914 10.1532 13.9198 9.98024 13.9198 9.79989C13.9198 9.61955 13.9914 9.44658 14.1189 9.31906C14.2465 9.19153 14.4194 9.11989 14.5998 9.11989H14.8398C14.9773 9.1154 15.1107 9.07157 15.2242 8.99359C15.3376 8.9156 15.4263 8.80674 15.4798 8.67989C15.5785 8.46011 15.7433 8.27653 15.9512 8.15468C16.1591 8.03282 16.3997 7.97872 16.6398 7.99989C16.8749 8.00407 17.1039 8.07615 17.2991 8.20744C17.4942 8.33873 17.6473 8.52363 17.7398 8.73989C17.7851 8.86821 17.8691 8.97936 17.98 9.05813C18.091 9.1369 18.2237 9.17943 18.3598 9.17989H18.5998C18.7801 9.17989 18.9531 9.25154 19.0806 9.37906C19.2081 9.50659 19.2798 9.67955 19.2798 9.85989C19.2798 10.0402 19.2081 10.2132 19.0806 10.3407C18.9531 10.4683 18.7801 10.5399 18.5998 10.5399V10.4799Z" fill="url(#paint0_linear_4630_4906)"/>
<path d="M22.08 17.4399H11.2C9.96284 17.4399 8.95996 18.4428 8.95996 19.6799V31.4799C8.95996 32.7171 9.96284 33.7199 11.2 33.7199H22.08C23.3171 33.7199 24.32 32.7171 24.32 31.4799V19.6799C24.32 18.4428 23.3171 17.4399 22.08 17.4399Z" fill="white"/>
<path d="M13.6001 21.9998V28.9998C13.598 29.0614 13.6126 29.1225 13.6426 29.1764C13.6725 29.2304 13.7165 29.2752 13.77 29.306C13.8234 29.3368 13.8842 29.3525 13.9459 29.3514C14.0075 29.3503 14.0678 29.3325 14.1201 29.2998L20.5401 25.7798C20.5944 25.7508 20.6399 25.7076 20.6716 25.6547C20.7033 25.6019 20.7201 25.5414 20.7201 25.4798C20.7201 25.4182 20.7033 25.3577 20.6716 25.3049C20.6399 25.252 20.5944 25.2088 20.5401 25.1798L14.1201 21.6598C14.0648 21.6241 14.0004 21.6053 13.9347 21.6055C13.8689 21.6057 13.8047 21.6249 13.7496 21.6609C13.6946 21.6969 13.6512 21.748 13.6246 21.8082C13.5981 21.8683 13.5896 21.9349 13.6001 21.9998Z" fill="url(#paint1_linear_4630_4906)"/>
<path d="M20.7199 37.8199H7.85988C7.53515 37.8225 7.21311 37.7608 6.91234 37.6384C6.61156 37.5159 6.33801 37.3352 6.10746 37.1065C5.8769 36.8778 5.69391 36.6057 5.56903 36.3059C5.44416 36.0061 5.37987 35.6846 5.37988 35.3599V21.6199H6.15988V35.3599C6.16508 35.8091 6.34585 36.2385 6.66354 36.5562C6.98124 36.8739 7.41063 37.0547 7.85988 37.0599H20.7199V37.8199Z" fill="#7F7CD7"/>
<path d="M39.2602 10.96H22.9802C22.2552 10.9652 21.5613 11.2556 21.0485 11.7683C20.5358 12.281 20.2455 12.9749 20.2402 13.7V39.42C20.2455 40.145 20.5358 40.8389 21.0485 41.3517C21.5613 41.8644 22.2552 42.1547 22.9802 42.16H39.2602C39.9853 42.1547 40.6792 41.8644 41.1919 41.3517C41.7046 40.8389 41.995 40.145 42.0002 39.42V13.7C41.995 12.9749 41.7046 12.281 41.1919 11.7683C40.6792 11.2556 39.9853 10.9652 39.2602 10.96ZM33.0802 15.3H29.0802C28.8999 15.3 28.7269 15.2283 28.5994 15.1008C28.4719 14.9733 28.4002 14.8003 28.4002 14.62C28.4076 14.5287 28.4334 14.4398 28.476 14.3587C28.5186 14.2776 28.5772 14.206 28.6482 14.1481C28.7191 14.0902 28.8011 14.0472 28.8891 14.0217C28.9771 13.9963 29.0693 13.9889 29.1602 14H29.4002C29.5362 13.9872 29.6654 13.9349 29.772 13.8496C29.8786 13.7644 29.9579 13.6498 30.0002 13.52C30.0824 13.3006 30.2302 13.1119 30.4234 12.9795C30.6167 12.8471 30.846 12.7774 31.0802 12.78C31.3166 12.7789 31.5479 12.8489 31.744 12.9809C31.9401 13.1128 32.0921 13.3006 32.1802 13.52C32.2289 13.6445 32.3142 13.7514 32.4249 13.8264C32.5356 13.9014 32.6665 13.941 32.8002 13.94H33.0402C33.2206 13.94 33.3935 14.0116 33.5211 14.1391C33.6486 14.2667 33.7202 14.4396 33.7202 14.62C33.7205 14.7936 33.6544 14.9608 33.5354 15.0872C33.4164 15.2136 33.2536 15.2897 33.0802 15.3Z" fill="url(#paint2_linear_4630_4906)"/>
<path d="M35.2004 42.6599H22.3204C21.6661 42.6546 21.0404 42.391 20.5796 41.9265C20.1189 41.4619 19.8603 40.8342 19.8604 40.1799V21.6199H20.6204V40.1799C20.6255 40.6291 20.8063 41.0585 21.124 41.3762C21.4417 41.6939 21.8711 41.8747 22.3204 41.8799H35.2004V42.6599Z" fill="#5F5F9E"/>
<path d="M31.0799 22.6599C32.6107 22.6599 34.1071 23.1139 35.38 23.9644C36.6528 24.8148 37.6449 26.0237 38.2307 27.438C38.8165 28.8523 38.9698 30.4085 38.6711 31.9099C38.3725 33.4114 37.6353 34.7905 36.5529 35.8729C35.4704 36.9554 34.0913 37.6926 32.5899 37.9912C31.0885 38.2899 29.5322 38.1366 28.1179 37.5508C26.7036 36.9649 25.4948 35.9729 24.6443 34.7001C23.7938 33.4272 23.3399 31.9308 23.3399 30.3999C23.3372 29.3828 23.5356 28.3751 23.9237 27.4348C24.3117 26.4946 24.8817 25.6403 25.601 24.921C26.3202 24.2018 27.1745 23.6318 28.1148 23.2437C29.055 22.8557 30.0627 22.6573 31.0799 22.6599Z" fill="white"/>
<path d="M33.6402 25.24C32.7313 25.2452 31.8615 25.61 31.2207 26.2545C30.5799 26.8991 30.2202 27.7711 30.2202 28.68C30.214 29.3116 30.395 29.9309 30.7402 30.4599C30.6358 30.5007 30.5406 30.5619 30.4602 30.6399L29.7002 31.4C29.4521 31.3017 29.1869 31.2541 28.9202 31.26C28.6359 31.2524 28.3533 31.3056 28.0912 31.416C27.829 31.5263 27.5935 31.6913 27.4002 31.9L22.8802 29.62C22.6752 29.521 22.4399 29.5053 22.2236 29.5761C22.0073 29.647 21.8269 29.7989 21.7202 30C21.6686 30.101 21.6374 30.2112 21.6286 30.3244C21.6198 30.4375 21.6334 30.5512 21.6687 30.6591C21.704 30.7669 21.7603 30.8667 21.8344 30.9526C21.9085 31.0386 21.9988 31.1091 22.1002 31.16L26.8002 33.5C26.8309 34.0412 27.0677 34.55 27.462 34.922C27.8563 35.294 28.3781 35.5008 28.9202 35.5C29.2029 35.5026 29.4833 35.4492 29.7453 35.3428C30.0072 35.2365 30.2455 35.0793 30.4463 34.8803C30.6472 34.6813 30.8066 34.4445 30.9154 34.1835C31.0242 33.9226 31.0802 33.6427 31.0802 33.36C31.0797 33.0919 31.0253 32.8266 30.9202 32.58L31.6802 31.82C31.7533 31.7432 31.8141 31.6554 31.8602 31.5599C32.3934 31.8958 33.01 32.076 33.6402 32.08C34.5525 32.08 35.4275 31.7175 36.0726 31.0724C36.7178 30.4273 37.0802 29.5523 37.0802 28.6399C37.0802 27.7276 36.7178 26.8526 36.0726 26.2075C35.4275 25.5624 34.5525 25.2 33.6402 25.2V25.24Z" fill="url(#paint3_linear_4630_4906)"/>
<path d="M33.6399 30.4C34.5899 30.4 35.3599 29.6299 35.3599 28.68C35.3599 27.73 34.5899 26.96 33.6399 26.96C32.69 26.96 31.9199 27.73 31.9199 28.68C31.9199 29.6299 32.69 30.4 33.6399 30.4Z" fill="white"/>
<defs>
<linearGradient id="paint0_linear_4630_4906" x1="16.6398" y1="6.21989" x2="16.6398" y2="45.6399" gradientUnits="userSpaceOnUse">
<stop stop-color="#CCD5FF"/>
<stop offset="1" stop-color="#99AAFF"/>
</linearGradient>
<linearGradient id="paint1_linear_4630_4906" x1="74.7228" y1="107.509" x2="74.7228" y2="135.627" gradientUnits="userSpaceOnUse">
<stop stop-color="#CCD5FF"/>
<stop offset="1" stop-color="#99AAFF"/>
</linearGradient>
<linearGradient id="paint2_linear_4630_4906" x1="31.1202" y1="11.54" x2="31.1202" y2="41.7" gradientUnits="userSpaceOnUse">
<stop stop-color="#99AAFF"/>
<stop offset="1" stop-color="#7F7CD7"/>
</linearGradient>
<linearGradient id="paint3_linear_4630_4906" x1="24.1802" y1="26.2" x2="34.2202" y2="31.98" gradientUnits="userSpaceOnUse">
<stop stop-color="#99AAFF"/>
<stop offset="1" stop-color="#867CD7"/>
</linearGradient>
</defs>
</svg>
